<?xml version="1.0" encoding="utf-8"?>
<!-- Generator: Adobe Illustrator 27.0.0, SVG Export Plug-In . SVG Version: 6.00 Build 0)  -->
<svg version="1.1" id="Laag_1" xmlns="http://www.w3.org/2000/svg" xmlns:xlink="http://www.w3.org/1999/xlink" x="0px" y="0px"
	 viewBox="0 0 228.7 39.1" style="enable-background:new 0 0 228.7 39.1;" xml:space="preserve">
<style type="text/css">
	.st0{fill:#FFFFFF;}
</style>
<g>
	<path class="st0" d="M5.4,16.6c0.7,0.9,0.6,1.9-0.5,2.6l-3,2c-1.4,0.9-0.2,3.2,1.3,2.4l7.8-4.7c1.8-1.1,3.1-0.4,3.2,1.1l0.2,3.9
		c0.1,2-0.8,2.8-2.2,2.8c-1.4,0-2.5-1.4-1.2-3.3l2-3.1c0.4-0.6-0.1-1-0.5-1c-0.4,0-0.6,0-1.3,0.9l-3,4c-1.4,1.9-2.2,2.5-3.9,2.5
		c-2.2,0-4.2-2.4-4.2-7c0-4.8,2.9-7.6,7.1-7.6c3.5,0,5.8,1.1,6.4,3.1c0.5,1.7-2,2.8-3.2,1.3l-2.1-2.7c-0.6-0.8-1.8-1.2-2.9-0.7
		c-1.3,0.6-1.2,2-0.5,2.8L5.4,16.6z"/>
	<path class="st0" d="M20.1,12.1c1.1,0,2.2,0.7,2.2,2.1c0,0.5-0.1,1.1-0.5,1.7l-3.9,7.3c-0.3,0.6-0.5,1.1-0.5,1.4
		c0,0.5,0.4,0.8,0.7,0.8c0.4,0,0.9-0.4,1.9-1.1l1.7-1.3c0.7-0.5,1.4-0.8,1.9-0.8c1.2,0,2,1.1,2,2.1c0,1.1-0.8,2.1-2.7,2.1h-3.7
		c-2,0-2.6-0.7-2.6-2.6c0-0.3,0-0.6,0.1-1l1.1-7.8C18.1,13,18.8,12.1,20.1,12.1z"/>
	<path class="st0" d="M27,19.4c0-4.8,2.3-7.3,6.6-7.3c4.3,0,6.6,2.4,6.6,7.3s-2.3,7.3-6.6,7.3C29.3,26.7,27,24.2,27,19.4z
		 M38.3,17.3l-7-2.8c-1.5-0.6-2.6,0.4-2.1,2.1l2.5,8c0.3,1,1.5,1.4,2.2,0.6l4.9-5.9C39.4,18.4,39.2,17.6,38.3,17.3z"/>
	<path class="st0" d="M51.7,17.5c-0.6,0-0.9,0.3-0.9,0.6c0,0.3,0.2,0.6,0.5,0.6l2,0.3c2.4,0.4,2.9,1.9,2.9,3c0,2.8-2.5,4.6-6.1,4.6
		c-5.6,0-8.3-3.1-8.3-7.2c0-4.5,2.7-7.1,7-7.1h2.3c3.5,0,5,0.6,5,2.6c0,1.7-1.5,2.7-2.9,2.6L51.7,17.5z M53.1,23.4
		c1.4,0,2.1-0.7,2.1-1.4c0-1.1-0.9-1.6-2.5-1.3L46,22c-0.7,0.1-1.1-0.1-1.2-0.4c-0.1-0.5,0-0.8,0.6-1.2L51,17c1.6-1,1.6-2.2,0.8-3.1
		c-0.9-1-2.7-1.1-4.2,1L43.8,20c-0.5,0.7-0.6,1.5-0.3,2.2c0.3,0.8,1.1,1.3,2.2,1.3L53.1,23.4z"/>
	<path class="st0" d="M67.2,21l0.8-6.6c0.1-1-0.4-1.7-1.1-1.5c-0.8,0.1-1.4,1.6-1.7,2.1l-2.2,4.6c-0.6,1.2-1.6,1.5-2.3,1.5
		c-1.1,0-2-0.9-2-2.1c0-0.8,0.6-1.5,1.4-2.2l3.7-3c1.6-1.3,2.3-1.8,3.5-1.8c1.1,0,1.9,0.8,2.1,2.1l1.7,8.9c0.4,2.1-0.2,3.7-2.1,3.7
		c-1.5,0-2.2-1-2.2-2.1v-1c0-1-0.5-1.1-1.2-0.6l-1.8,1.6c-0.9,0.7-2.2,2.1-3.7,2.1c-1.1,0-2.3-0.6-2.3-2.3c0-1.5,1.3-2.1,3-2.1
		l4.8-0.1C66.4,22.1,67.1,21.9,67.2,21z"/>
	<path class="st0" d="M76.4,12.1c1.1,0,2.2,0.7,2.2,2.1c0,0.5-0.1,1.1-0.5,1.7l-3.9,7.3c-0.3,0.6-0.5,1.1-0.5,1.4
		c0,0.5,0.4,0.8,0.7,0.8c0.4,0,0.9-0.4,1.9-1.1L78,23c0.7-0.5,1.4-0.8,1.9-0.8c1.2,0,2,1.1,2,2.1c0,1.1-0.8,2.1-2.7,2.1h-3.7
		c-2,0-2.6-0.7-2.6-2.6c0-0.3,0-0.6,0.1-1l1.1-7.8C74.4,13,75.1,12.1,76.4,12.1z"/>
	<path class="st0" d="M91.3,19.7c0-4.4,3-7.6,7.2-7.6c3.6,0,5.6,2.2,5.6,4.6c0,1.3-0.6,2.5-2.4,2.3c-1.6-0.2-1.6-1.8-1.4-2.8
		l0.3-1.8c0.1-0.8-0.3-1.4-1.2-0.9l-6,3.6c-0.7,0.4-0.8,1.1,0,1.3l3.3,0.9c1.3,0.4,1.9,2,0.3,2.8l-1,0.5c-2.6,1.4,0.6,4.4,2.3,2.5
		l2.7-3.2c1.4-1.7,3.2-0.7,3.2,0.6c0,1.6-3.2,4-6.8,4C93.3,26.7,91.3,23.6,91.3,19.7z"/>
	<path class="st0" d="M110.3,12.1c1.1,0,2.2,0.7,2.2,2.1c0,0.5-0.1,1.1-0.5,1.7l-3.9,7.3c-0.3,0.6-0.5,1.1-0.5,1.4
		c0,0.5,0.4,0.8,0.7,0.8c0.4,0,0.9-0.4,1.9-1.1l1.7-1.3c0.7-0.5,1.4-0.8,1.9-0.8c1.2,0,2,1.1,2,2.1c0,1.1-0.8,2.1-2.7,2.1h-3.7
		c-2,0-2.6-0.7-2.6-2.6c0-0.3,0-0.6,0.1-1L108,15C108.3,13,109,12.1,110.3,12.1z"/>
	<path class="st0" d="M126.8,21l0.8-6.6c0.1-1-0.4-1.7-1.1-1.5c-0.8,0.1-1.4,1.6-1.7,2.1l-2.2,4.6c-0.6,1.2-1.6,1.5-2.3,1.5
		c-1.1,0-2-0.9-2-2.1c0-0.8,0.6-1.5,1.4-2.2l3.7-3c1.6-1.3,2.3-1.8,3.5-1.8c1.1,0,1.9,0.8,2.1,2.1l1.7,8.9c0.4,2.1-0.2,3.7-2.1,3.7
		c-1.5,0-2.2-1-2.2-2.1v-1c0-1-0.5-1.1-1.2-0.6l-1.8,1.6c-0.9,0.7-2.2,2.1-3.7,2.1c-1.1,0-2.3-0.6-2.3-2.3c0-1.5,1.3-2.1,3-2.1
		l4.8-0.1C126,22.1,126.7,21.9,126.8,21z"/>
	<path class="st0" d="M132.2,22.2c0-1,0.4-2.2,1.5-2.2c0.9,0,1.4,0.8,1.4,1.5v3.1c0,0.9,0.6,1.4,1.7,0.8l6.5-3.1
		c0.8-0.4,1.4-0.7,1.3-1.4c-0.2-0.7-0.8-0.8-1.4-0.5l-3.9,1.8c-1.8,0.8-3-0.4-3-1.7l0-0.7c0-0.7-0.3-0.8-1.1-0.9l-1.2-0.3
		c-0.8-0.2-1.3-0.9-1.3-1.7c0-3.2,3.3-5,6.6-5c3.2,0,6.4,1.4,6.4,4.7c0,1.3-0.5,2.2-1.6,2.2c-0.7,0-1.8-0.7-0.8-2.2l0.8-1.2
		c0.2-0.3,0.2-0.7,0-0.8c-0.3-0.2-0.7-0.2-1.3-0.1l-8,1.7c-0.8,0.2-1,0.5-0.9,0.9c0.1,0.4,0.3,0.6,0.9,0.7l9.4,1.7
		c1.1,0.2,1.6,0.9,1.6,1.8c0,2.6-3.3,5.2-7.6,5.2C133.8,26.7,132.2,24.3,132.2,22.2z"/>
	<path class="st0" d="M147.7,22.2c0-1,0.4-2.2,1.5-2.2c0.9,0,1.4,0.8,1.4,1.5v3.1c0,0.9,0.6,1.4,1.7,0.8l6.5-3.1
		c0.8-0.4,1.4-0.7,1.3-1.4c-0.2-0.7-0.8-0.8-1.4-0.5l-3.9,1.8c-1.8,0.8-3-0.4-3-1.7l0-0.7c0-0.7-0.3-0.8-1.1-0.9l-1.2-0.3
		c-0.8-0.2-1.3-0.9-1.3-1.7c0-3.2,3.3-5,6.6-5c3.2,0,6.4,1.4,6.4,4.7c0,1.3-0.5,2.2-1.6,2.2c-0.7,0-1.8-0.7-0.8-2.2l0.8-1.2
		c0.2-0.3,0.2-0.7,0-0.8c-0.3-0.2-0.7-0.2-1.3-0.1l-8,1.7c-0.8,0.2-1,0.5-0.9,0.9c0.1,0.4,0.3,0.6,0.9,0.7l9.4,1.7
		c1.1,0.2,1.6,0.9,1.6,1.8c0,2.6-3.3,5.2-7.6,5.2C149.2,26.7,147.7,24.3,147.7,22.2z"/>
	<path class="st0" d="M174.7,26.7c-0.7,0-1.7-0.4-2.7-1.6l-4.6-5.5c-0.4-0.5-0.6-0.9-0.6-1.2c0-0.5,0.4-0.6,1.1-0.5l5.6,0.7
		c2,0.3,2.6-0.6,2.6-1.6c0-0.9-0.7-1.6-2.1-1.6h-5.8c-1.9,0-2.9,1.1-2.9,2.4c0,0.4,0.1,0.7,0.2,1.1l1.9,4.4c0.7,1.7,0.5,3.3-1.6,3.3
		c-1.1,0-2.4-0.9-2.4-3.5c0-6.3,2.6-11.1,8.3-11.1c4.6,0,5.7,2.9,5.7,4.6c0,1.3-0.5,2.4-3.1,3.3l-3,1.1c-0.4,0.1-0.8,0.4-0.8,0.8
		c0,0.4,0.3,0.6,1,0.6l3.6,0c1.2,0,2.1,0.8,2.1,1.9C177.3,25.6,176.7,26.7,174.7,26.7z"/>
	<path class="st0" d="M179.4,19.4c0-4.8,2.3-7.3,6.5-7.3c4.3,0,6.6,2.4,6.6,7.3s-2.3,7.3-6.6,7.3C181.7,26.7,179.4,24.2,179.4,19.4z
		 M190.7,17.3l-7-2.8c-1.5-0.6-2.6,0.4-2.1,2.1l2.5,8c0.3,1,1.5,1.4,2.2,0.6l4.9-5.9C191.8,18.4,191.6,17.6,190.7,17.3z"/>
	<path class="st0" d="M194.6,19.4c0-4.8,2.3-7.3,6.5-7.3c4.3,0,6.6,2.4,6.6,7.3s-2.3,7.3-6.6,7.3C196.9,26.7,194.6,24.2,194.6,19.4z
		 M205.9,17.3l-7-2.8c-1.5-0.6-2.6,0.4-2.1,2.1l2.5,8c0.3,1,1.5,1.4,2.2,0.6l4.9-5.9C207,18.4,206.8,17.6,205.9,17.3z"/>
	<path class="st0" d="M221.1,17.7c-0.5-3.4,1.3-5.6,4.2-5.6c2.3,0,3.3,1.2,3.3,5.7l0,6.2c0,2.1-1.2,2.8-2.2,2.8c-1.6,0-2-1.2-2-2.1
		c0-0.8,0.4-2,0.6-2.7l2.1-7.4c0.4-1.5-1.5-2.1-2-0.4l-2.9,9.7c-0.6,1.9-1.1,3-2.4,3c-0.9,0-1.5-0.6-2.5-2.6l-2.1-4.3
		c-0.6-1.1-0.9-2.8-0.7-4.3l0.2-1.1c0.1-0.9-0.6-1.4-1.5-1.4c-1,0-1.6,0.8-1.6,1.8c0,0.5,0.2,1.4,0.4,1.8l2.6,6.3
		c0.8,1.9,0.4,3.8-1.6,3.8c-2.4,0-2.7-2.4-2.7-5.1v-3.9c0-4.2,1.2-5.6,3.4-5.6c1.5,0,2.7,0.7,3.5,2.7l3,7.3c0.3,0.7,0.6,0.9,1,0.9
		c0.6,0,0.9-0.6,0.7-1.9L221.1,17.7z"/>
</g>
</svg>
